<?xml version="1.0" encoding="utf-8"?>
<!-- Generator: Adobe Illustrator 24.0.1, SVG Export Plug-In . SVG Version: 6.00 Build 0)  -->
<svg version="1.1" id="Layer_1" xmlns="http://www.w3.org/2000/svg" xmlns:xlink="http://www.w3.org/1999/xlink" x="0px" y="0px"
	 viewBox="0 0 1016 867" style="enable-background:new 0 0 1016 867;" xml:space="preserve">
<style type="text/css">
	.st0{clip-path:url(#SVGID_2_);fill:url(#SVGID_3_);}
	.st1{clip-path:url(#SVGID_5_);fill:url(#SVGID_6_);}
	.st2{filter:url(#Adobe_OpacityMaskFilter);}
	.st3{fill:url(#SVGID_8_);}
	.st4{mask:url(#SVGID_7_);fill-rule:evenodd;clip-rule:evenodd;fill:#F6DCFD;}
	.st5{filter:url(#Adobe_OpacityMaskFilter_1_);}
	.st6{fill:url(#SVGID_10_);}
	.st7{mask:url(#SVGID_9_);fill-rule:evenodd;clip-rule:evenodd;fill:#F6DCFD;}
	.st8{filter:url(#Adobe_OpacityMaskFilter_2_);}
	.st9{fill:url(#SVGID_12_);}
	.st10{mask:url(#SVGID_11_);fill-rule:evenodd;clip-rule:evenodd;fill:#1E003D;}
	.st11{filter:url(#Adobe_OpacityMaskFilter_3_);}
	.st12{fill:url(#SVGID_14_);}
	.st13{mask:url(#SVGID_13_);fill-rule:evenodd;clip-rule:evenodd;fill:#FDE3A7;}
	.st14{clip-path:url(#SVGID_16_);fill:url(#SVGID_17_);}
	.st15{clip-path:url(#SVGID_19_);fill:url(#SVGID_20_);}
	.st16{filter:url(#Adobe_OpacityMaskFilter_4_);}
	.st17{fill:url(#SVGID_22_);}
	.st18{mask:url(#SVGID_21_);fill-rule:evenodd;clip-rule:evenodd;fill:#F6DCFD;}
	.st19{filter:url(#Adobe_OpacityMaskFilter_5_);}
	.st20{fill:url(#SVGID_24_);}
	.st21{mask:url(#SVGID_23_);fill-rule:evenodd;clip-rule:evenodd;fill:#F6DCFD;}
	.st22{filter:url(#Adobe_OpacityMaskFilter_6_);}
	.st23{fill:url(#SVGID_26_);}
	.st24{mask:url(#SVGID_25_);fill-rule:evenodd;clip-rule:evenodd;fill:#1E003D;}
	.st25{filter:url(#Adobe_OpacityMaskFilter_7_);}
	.st26{fill:url(#SVGID_28_);}
	.st27{mask:url(#SVGID_27_);fill-rule:evenodd;clip-rule:evenodd;fill:#FDE3A7;}
	.st28{opacity:0.2;fill-rule:evenodd;clip-rule:evenodd;fill:#3C4A59;}
	.st29{fill:#C34298;}
	.st30{font-family:'MyriadPro-Regular';}
	.st31{font-size:90.0251px;}
</style>
<g>
	<g>
		<defs>
			<path id="SVGID_1_" d="M431.55,601.92c56.16-172.48-54-200.95-154.17-217.69c-109.3,73.97-149.23,214.99-95.6,333.94
				c55.13-0.31,110.92-14.35,162.07-43.54C378.16,655.06,407.53,630.29,431.55,601.92"/>
		</defs>
		<clipPath id="SVGID_2_">
			<use xlink:href="#SVGID_1_"  style="overflow:visible;"/>
		</clipPath>
		<linearGradient id="SVGID_3_" gradientUnits="userSpaceOnUse" x1="407.9323" y1="510.1971" x2="122.9332" y2="627.0635">
			<stop  offset="0" style="stop-color:#FC00BD"/>
			<stop  offset="1" style="stop-color:#FFCF4B"/>
		</linearGradient>
		<rect x="128.16" y="384.23" class="st0" width="359.56" height="333.94"/>
	</g>
	<g>
		<defs>
			<path id="SVGID_4_" d="M144.76,304.05c-17.26,61.22,54.66,67.15,132.62,80.18c100.17,16.75,210.34,45.21,154.17,217.69
				c86.01-101.57,103.41-249.37,32.52-370.74C383.83,93.82,217.36,36.34,71.26,86.99C71.26,86.99,184.19,164.18,144.76,304.05"/>
		</defs>
		<clipPath id="SVGID_5_">
			<use xlink:href="#SVGID_4_"  style="overflow:visible;"/>
		</clipPath>
		<linearGradient id="SVGID_6_" gradientUnits="userSpaceOnUse" x1="499.8998" y1="508.6347" x2="58.4468" y2="83.5135">
			<stop  offset="0" style="stop-color:#261362"/>
			<stop  offset="1" style="stop-color:#F900B7"/>
		</linearGradient>
		<rect x="71.26" y="36.34" class="st1" width="463.7" height="565.58"/>
	</g>
	<defs>
		<filter id="Adobe_OpacityMaskFilter" filterUnits="userSpaceOnUse" x="71.26" y="68.81" width="436.87" height="533.11">
			<feColorMatrix  type="matrix" values="1 0 0 0 0  0 1 0 0 0  0 0 1 0 0  0 0 0 1 0"/>
		</filter>
	</defs>
	<mask maskUnits="userSpaceOnUse" x="71.26" y="68.81" width="436.87" height="533.11" id="SVGID_7_">
		<g class="st2">
			
				<linearGradient id="SVGID_8_" gradientUnits="userSpaceOnUse" x1="-460.3509" y1="-211.2749" x2="439.8174" y2="684.8835" gradientTransform="matrix(1 0 0 1 78.4565 -121.9578)">
				<stop  offset="0" style="stop-color:#FFFFFF"/>
				<stop  offset="1" style="stop-color:#000000"/>
			</linearGradient>
			<rect x="71.26" y="68.81" class="st3" width="436.87" height="533.11"/>
		</g>
	</mask>
	<path class="st4" d="M464.07,231.19C383.83,93.82,217.37,36.34,71.26,86.98c0,0,31.08,21.25,54.94,61.64
		c82.27-0.93,164.97,28.51,229.45,88.81c102.99,96.31,128.99,242.88,75.9,364.48c49.61-58.58,76.39-132.55,76.58-207.95
		c0-0.51,0-1.03,0-1.55C508,337.6,493.8,282.07,464.07,231.19"/>
	<defs>
		<filter id="Adobe_OpacityMaskFilter_1_" filterUnits="userSpaceOnUse" x="71.26" y="68.81" width="409.14" height="194.2">
			<feColorMatrix  type="matrix" values="1 0 0 0 0  0 1 0 0 0  0 0 1 0 0  0 0 0 1 0"/>
		</filter>
	</defs>
	<mask maskUnits="userSpaceOnUse" x="71.26" y="68.81" width="409.14" height="194.2" id="SVGID_9_">
		<g class="st5">
			
				<linearGradient id="SVGID_10_" gradientUnits="userSpaceOnUse" x1="-493.8986" y1="3.0054" x2="490.1972" y2="475.067" gradientTransform="matrix(1 0 0 1 78.4565 -168.6926)">
				<stop  offset="0" style="stop-color:#FFFFFF"/>
				<stop  offset="1" style="stop-color:#000000"/>
			</linearGradient>
			<rect x="71.26" y="68.81" class="st6" width="409.14" height="194.2"/>
		</g>
	</mask>
	<path class="st7" d="M200.5,156.14c0,0,153.79-113.42,279.91,106.87c-4.8-10.77-10.24-21.39-16.33-31.83
		C383.83,93.82,217.37,36.34,71.26,86.98c0,0,31.08,21.25,54.94,61.64C151.1,148.35,176.04,150.85,200.5,156.14"/>
	<defs>
		<filter id="Adobe_OpacityMaskFilter_2_" filterUnits="userSpaceOnUse" x="277.38" y="193.54" width="180.98" height="408.38">
			<feColorMatrix  type="matrix" values="1 0 0 0 0  0 1 0 0 0  0 0 1 0 0  0 0 0 1 0"/>
		</filter>
	</defs>
	<mask maskUnits="userSpaceOnUse" x="277.38" y="193.54" width="180.98" height="408.38" id="SVGID_11_">
		<g class="st8">
			
				<linearGradient id="SVGID_12_" gradientUnits="userSpaceOnUse" x1="644.7048" y1="863.5978" x2="80.4527" y2="357.437" gradientTransform="matrix(1 0 0 1 106.5498 -121.9578)">
				<stop  offset="0" style="stop-color:#FFFFFF"/>
				<stop  offset="1" style="stop-color:#000000"/>
			</linearGradient>
			<rect x="277.38" y="193.54" class="st9" width="180.98" height="408.38"/>
		</g>
	</mask>
	<path class="st10" d="M296.77,193.54c225.03,183.91-19.39,190.69-19.39,190.69c100.18,16.75,210.34,45.21,154.17,217.69
		c53.09-121.61,27.09-268.18-75.9-364.48C337.36,220.32,317.58,205.69,296.77,193.54"/>
	<defs>
		<filter id="Adobe_OpacityMaskFilter_3_" filterUnits="userSpaceOnUse" x="158.12" y="384.23" width="145.46" height="333.95">
			<feColorMatrix  type="matrix" values="1 0 0 0 0  0 1 0 0 0  0 0 1 0 0  0 0 0 1 0"/>
		</filter>
	</defs>
	<mask maskUnits="userSpaceOnUse" x="158.12" y="384.23" width="145.46" height="333.95" id="SVGID_13_">
		<g class="st11">
			
				<linearGradient id="SVGID_14_" gradientUnits="userSpaceOnUse" x1="-28.4222" y1="1203.0715" x2="200.6147" y2="463.0952" gradientTransform="matrix(1 0 0 1 90.2954 -105.927)">
				<stop  offset="0" style="stop-color:#FFFFFF"/>
				<stop  offset="1" style="stop-color:#000000"/>
			</linearGradient>
			<rect x="158.12" y="384.23" class="st12" width="145.46" height="333.95"/>
		</g>
	</mask>
	<path class="st13" d="M282.1,701.99c-24.54-41.36-38.61-89.53-38.61-140.94c0-64.95,22.45-124.71,60.1-172.12
		c-8.74-1.72-17.5-3.26-26.2-4.71c-109.3,73.97-149.22,214.99-95.6,333.95C215.38,717.99,249.21,712.7,282.1,701.99"/>
	<g>
		<defs>
			<path id="SVGID_15_" d="M584.71,601.92c-56.16-172.48,54-200.95,154.17-217.69c109.3,73.97,149.23,214.99,95.6,333.94
				c-55.13-0.31-110.92-14.35-162.07-43.54C638.1,655.06,608.73,630.29,584.71,601.92"/>
		</defs>
		<clipPath id="SVGID_16_">
			<use xlink:href="#SVGID_15_"  style="overflow:visible;"/>
		</clipPath>
		<linearGradient id="SVGID_17_" gradientUnits="userSpaceOnUse" x1="608.3296" y1="510.1977" x2="893.3287" y2="627.064">
			<stop  offset="0" style="stop-color:#FC00BD"/>
			<stop  offset="1" style="stop-color:#FFCF4B"/>
		</linearGradient>
		<rect x="528.54" y="384.23" class="st14" width="359.56" height="333.94"/>
	</g>
	<g>
		<defs>
			<path id="SVGID_18_" d="M871.5,304.05c17.26,61.22-54.66,67.15-132.62,80.18c-100.17,16.75-210.34,45.21-154.17,217.69
				c-86.01-101.57-103.41-249.37-32.52-370.74C632.43,93.82,798.9,36.34,945,86.99C945,86.99,832.07,164.18,871.5,304.05"/>
		</defs>
		<clipPath id="SVGID_19_">
			<use xlink:href="#SVGID_18_"  style="overflow:visible;"/>
		</clipPath>
		<linearGradient id="SVGID_20_" gradientUnits="userSpaceOnUse" x1="516.3618" y1="508.6347" x2="957.8141" y2="83.5129">
			<stop  offset="0" style="stop-color:#261362"/>
			<stop  offset="1" style="stop-color:#F900B7"/>
		</linearGradient>
		<rect x="481.29" y="36.34" class="st15" width="463.71" height="565.58"/>
	</g>
	<defs>
		<filter id="Adobe_OpacityMaskFilter_4_" filterUnits="userSpaceOnUse" x="508.13" y="68.81" width="436.87" height="533.11">
			<feColorMatrix  type="matrix" values="1 0 0 0 0  0 1 0 0 0  0 0 1 0 0  0 0 0 1 0"/>
		</filter>
	</defs>
	<mask maskUnits="userSpaceOnUse" x="508.13" y="68.81" width="436.87" height="533.11" id="SVGID_21_">
		<g class="st16">
			
				<linearGradient id="SVGID_22_" gradientUnits="userSpaceOnUse" x1="1260.2078" y1="-211.2737" x2="359.9635" y2="684.8884" gradientTransform="matrix(1 0 0 1 137.9999 -121.9578)">
				<stop  offset="0" style="stop-color:#FFFFFF"/>
				<stop  offset="1" style="stop-color:#000000"/>
			</linearGradient>
			<rect x="508.13" y="68.81" class="st17" width="436.87" height="533.11"/>
		</g>
	</mask>
	<path class="st18" d="M552.19,231.19C632.43,93.82,798.9,36.34,945,86.98c0,0-31.08,21.25-54.94,61.64
		c-82.27-0.93-164.97,28.51-229.45,88.81c-102.99,96.31-128.99,242.88-75.9,364.48c-49.61-58.58-76.39-132.55-76.58-207.95
		c0-0.51,0-1.03,0-1.55C508.26,337.6,522.46,282.07,552.19,231.19"/>
	<defs>
		<filter id="Adobe_OpacityMaskFilter_5_" filterUnits="userSpaceOnUse" x="535.86" y="68.81" width="409.14" height="194.2">
			<feColorMatrix  type="matrix" values="1 0 0 0 0  0 1 0 0 0  0 0 1 0 0  0 0 0 1 0"/>
		</filter>
	</defs>
	<mask maskUnits="userSpaceOnUse" x="535.86" y="68.81" width="409.14" height="194.2" id="SVGID_23_">
		<g class="st19">
			
				<linearGradient id="SVGID_24_" gradientUnits="userSpaceOnUse" x1="1289.9573" y1="2.9898" x2="305.8615" y2="475.0514" gradientTransform="matrix(1 0 0 1 141.7788 -168.6926)">
				<stop  offset="0" style="stop-color:#FFFFFF"/>
				<stop  offset="1" style="stop-color:#000000"/>
			</linearGradient>
			<rect x="535.86" y="68.81" class="st20" width="409.14" height="194.2"/>
		</g>
	</mask>
	<path class="st21" d="M815.76,156.14c0,0-153.79-113.42-279.91,106.87c4.8-10.77,10.24-21.39,16.33-31.83
		C632.43,93.82,798.9,36.34,945,86.98c0,0-31.08,21.25-54.94,61.64C865.16,148.35,840.23,150.85,815.76,156.14"/>
	<defs>
		<filter id="Adobe_OpacityMaskFilter_6_" filterUnits="userSpaceOnUse" x="557.9" y="193.54" width="180.98" height="408.38">
			<feColorMatrix  type="matrix" values="1 0 0 0 0  0 1 0 0 0  0 0 1 0 0  0 0 0 1 0"/>
		</filter>
	</defs>
	<mask maskUnits="userSpaceOnUse" x="557.9" y="193.54" width="180.98" height="408.38" id="SVGID_25_">
		<g class="st22">
			
				<linearGradient id="SVGID_26_" gradientUnits="userSpaceOnUse" x1="120.2339" y1="863.5883" x2="684.4861" y2="357.4275" gradientTransform="matrix(1 0 0 1 144.7826 -121.9578)">
				<stop  offset="0" style="stop-color:#FFFFFF"/>
				<stop  offset="1" style="stop-color:#000000"/>
			</linearGradient>
			<rect x="557.89" y="193.54" class="st23" width="180.98" height="408.38"/>
		</g>
	</mask>
	<path class="st24" d="M719.49,193.54c-225.03,183.91,19.39,190.69,19.39,190.69c-100.18,16.75-210.34,45.21-154.17,217.69
		c-53.09-121.61-27.09-268.18,75.9-364.48C678.9,220.32,698.68,205.69,719.49,193.54"/>
	<defs>
		<filter id="Adobe_OpacityMaskFilter_7_" filterUnits="userSpaceOnUse" x="712.68" y="384.23" width="145.46" height="333.95">
			<feColorMatrix  type="matrix" values="1 0 0 0 0  0 1 0 0 0  0 0 1 0 0  0 0 0 1 0"/>
		</filter>
	</defs>
	<mask maskUnits="userSpaceOnUse" x="712.68" y="384.23" width="145.46" height="333.95" id="SVGID_27_">
		<g class="st25">
			
				<linearGradient id="SVGID_28_" gradientUnits="userSpaceOnUse" x1="788.5121" y1="1203.0819" x2="559.4752" y2="463.1056" gradientTransform="matrix(1 0 0 1 165.8786 -105.927)">
				<stop  offset="0" style="stop-color:#FFFFFF"/>
				<stop  offset="1" style="stop-color:#000000"/>
			</linearGradient>
			<rect x="712.68" y="384.23" class="st26" width="145.46" height="333.95"/>
		</g>
	</mask>
	<path class="st27" d="M734.16,701.99c24.54-41.36,38.61-89.53,38.61-140.94c0-64.95-22.45-124.71-60.1-172.12
		c8.74-1.72,17.5-3.26,26.2-4.71c109.3,73.97,149.22,214.99,95.6,333.95C800.88,717.99,767.05,712.7,734.16,701.99"/>
	<path class="st28" d="M826.9,775.84c0-12.24-142.72-22.16-318.77-22.16c-176.06,0-318.77,9.92-318.77,22.16
		c0,12.24,142.72,22.16,318.77,22.16C684.19,798,826.9,788.08,826.9,775.84"/>
	<text transform="matrix(1.3652 0 0 1 290.4268 766.4873)" class="st29 st30 st31">Butterfly</text>
</g>
</svg>
